<?xml version="1.0" encoding="utf-8"?>
<!-- Generator: Adobe Illustrator 19.0.1, SVG Export Plug-In . SVG Version: 6.00 Build 0)  -->
<svg version="1.1" id="Github_w_x2F__circle" xmlns="http://www.w3.org/2000/svg" xmlns:xlink="http://www.w3.org/1999/xlink"
	 x="0px" y="0px" viewBox="-39 41 20 20" style="enable-background:new -39 41 20 20;" xml:space="preserve">
<style type="text/css">
	.st0{fill:#B2D8AF;}
</style>
<path class="st0" d="M-29,50.9L-29,50.9L-29,50.9c-1.2,0-2.3-0.3-2.9,0.3c-0.4,0.3-0.5,0.8-0.5,1.2c0,1.9,1.5,2.1,3.4,2.1l0,0
	c1.9,0,3.4-0.2,3.4-2.1c0-0.4-0.2-0.9-0.5-1.2C-26.7,50.6-27.8,50.9-29,50.9z M-30.6,53.5c-0.4,0-0.7-0.4-0.7-0.9s0.3-0.9,0.7-0.9
	s0.7,0.4,0.7,0.9S-30.2,53.5-30.6,53.5z M-27.4,53.5c-0.4,0-0.7-0.4-0.7-0.9s0.3-0.9,0.7-0.9c0.4,0,0.7,0.4,0.7,0.9
	C-26.7,53.1-27,53.5-27.4,53.5z M-29,41.4c-5.3,0-9.6,4.3-9.6,9.6s4.3,9.6,9.6,9.6s9.6-4.3,9.6-9.6S-23.7,41.4-29,41.4z M-28.1,54.9
	c-0.2,0-0.5,0-0.9,0s-0.7,0-0.9,0c-0.8,0-3.8-0.1-3.8-3.7c0-0.8,0.3-1.4,0.8-2C-33,49-33,48-32.6,47c0,0,0.9,0.1,2.3,1.1
	C-30,48-29.5,48-29,48s1,0,1.3,0.1c1.4-1,2.3-1.1,2.3-1.1c0.4,1,0.4,2.1,0.3,2.2c0.5,0.5,0.8,1.1,0.8,2
	C-24.4,54.9-27.4,54.9-28.1,54.9z"/>
</svg>
