<?xml version="1.0" encoding="utf-8"?>
<!-- Generator: Adobe Illustrator 19.0.1, SVG Export Plug-In . SVG Version: 6.00 Build 0)  -->
<svg version="1.1" id="LinkedIn_w_x2F__circle" xmlns="http://www.w3.org/2000/svg" xmlns:xlink="http://www.w3.org/1999/xlink"
	 x="0px" y="0px" viewBox="-39 41 20 20" style="enable-background:new -39 41 20 20;" xml:space="preserve">
<style type="text/css">
	.st0{fill:#B2D8AF;}
</style>
<path class="st0" d="M-29,41.4c-5.3,0-9.6,4.3-9.6,9.6s4.3,9.6,9.6,9.6s9.6-4.3,9.6-9.6S-23.7,41.4-29,41.4z M-31.4,55h-1.9v-6.3
	h1.9V55z M-32.3,48c-0.6,0-1-0.4-1-1c0-0.5,0.4-1,1-1c0.6,0,1,0.4,1,1C-31.3,47.5-31.7,48-32.3,48z M-24.2,55h-1.9v-3.5
	c0-0.8-0.3-1.4-1-1.4c-0.5,0-0.9,0.4-1,0.7c-0.1,0.1-0.1,0.3-0.1,0.5V55h-1.9v-4.3c0-0.8,0-1.4-0.1-2h1.7l0.1,0.9l0,0
	c0.3-0.4,0.9-1,1.9-1c1.3,0,2.2,0.9,2.2,2.7L-24.2,55L-24.2,55z"/>
</svg>
