<?xml version="1.0" encoding="utf-8"?>
<!-- Generator: Adobe Illustrator 19.0.1, SVG Export Plug-In . SVG Version: 6.00 Build 0)  -->
<svg version="1.1" id="Twitter_w_x2F__circle" xmlns="http://www.w3.org/2000/svg" xmlns:xlink="http://www.w3.org/1999/xlink"
	 x="0px" y="0px" viewBox="-39 41 20 20" style="enable-background:new -39 41 20 20;" xml:space="preserve">
<style type="text/css">
	.st0{fill:#B2D8AF;}
</style>
<path class="st0" d="M-29,41.4c-5.3,0-9.6,4.3-9.6,9.6s4.3,9.6,9.6,9.6s9.6-4.3,9.6-9.6S-23.7,41.4-29,41.4z M-25.1,49.3
	c0,0.1,0,0.2,0,0.2c0,2.5-1.9,5.4-5.4,5.4c-1.1,0-2.1-0.3-2.9-0.8c0.1,0,0.3,0,0.5,0c0.9,0,1.7-0.3,2.3-0.8c-0.8,0-1.5-0.6-1.8-1.3
	c0.1,0,0.2,0,0.4,0s0.3,0,0.5-0.1C-32.4,51.7-33,51-33,50l0,0c0.3,0.1,0.5,0.2,0.9,0.2c-0.5-0.3-0.8-0.9-0.8-1.6
	c0-0.3,0.1-0.7,0.3-1c0.9,1.1,2.3,1.9,3.9,2c0-0.1,0-0.3,0-0.4c0-1,0.8-1.9,1.9-1.9c0.5,0,1,0.2,1.4,0.6c0.4-0.1,0.8-0.2,1.2-0.5
	c-0.1,0.4-0.4,0.8-0.8,1c0.4,0,0.7-0.1,1.1-0.3C-24.4,48.7-24.7,49-25.1,49.3z"/>
</svg>
