<?xml version="1.0" encoding="utf-8"?>
<!-- Generator: Adobe Illustrator 19.1.0, SVG Export Plug-In . SVG Version: 6.00 Build 0)  -->
<svg version="1.1" id="Layer_1" xmlns="http://www.w3.org/2000/svg" xmlns:xlink="http://www.w3.org/1999/xlink" x="0px" y="0px"
	 viewBox="0 0 50 50" style="enable-background:new 0 0 50 50;" xml:space="preserve">
<style type="text/css">
	.st0{fill:#CE062C;}
</style>
<g>
	<path class="st0" d="M32.8,14.9c0,0,3.4-2,2-4.3c-1-1.7-6.3-4.7-13.5,0C21.2,10.5,26.7,9,32.8,14.9z"/>
	<path class="st0" d="M25.8,25.7c0,0-5.3-3.7-5.7-6.6c-0.3-2.4-0.6-6.4,6-6.2c0,0-8.7-5.5-10.6,4.3C14,25.4,26.2,29,25.8,25.7z"/>
	<path class="st0" d="M28.4,16.6c0.9-0.7,0.5-2.2,0.5-2.2s-3.4-1.7-6.2,0.2c-3,2-0.7,5.6-0.7,5.6C24.3,16.1,28.4,16.6,28.4,16.6z"/>
	<path class="st0" d="M27.7,25.7c0,0,5.9-4.3,3.7-10.6c0,0-3,4.4-9,5.3C22.4,20.5,23.9,23.2,27.7,25.7z"/>
	<path class="st0" d="M33.8,14.9C34,24,26.7,28,26.7,28c6.9,2.8,19.3-5.6,16.8-9.6S33.8,14.9,33.8,14.9z"/>
	<path class="st0" d="M46,26.3c-3.1-1.7-8.1,0.2-9.6,2.5c-1.6,2.4-5.5,6.7-5.5,6.7s5.2-2.5,7.6-1.7c2.3,0.7,3.4,3.1,3.4,3.1
		c1.9-0.2,6.9-7.3,6.9-7.3S49.1,28,46,26.3z"/>
	<path class="st0" d="M22.6,28.3c-5.6-2-8.3-8.3-8.3-8.3c-0.5,3.8,1.3,10,4.6,13.4c5.6,5.9,10.4,1.6,11.9,0.3c2.6-2,4.4-5.4,4.4-5.4
		S29.3,30.7,22.6,28.3z"/>
	<path class="st0" d="M19.9,35.8c0,0-6.9-6.6-6.9-12.4c0-5.5,1.6-7.7,1.6-7.7s-5.1-4.5-8,2.1C4.1,23.7,11.3,34.9,19.9,35.8z"/>
	<path class="st0" d="M34.4,36c-2.3,0.1-5,1.6-10.6,1.7c-5.7,0-10.2-3.5-10.2-3.5c1,5.4,7.9,6,13.9,6.9c6.1,0.9,6.7,4.8,6.7,4.8
		s3.4-0.2,4.8-4.5C40.8,36.2,36.7,35.9,34.4,36z"/>
	<path class="st0" d="M10.1,32.3c-3.6-3.6-8.9-0.2-8.9-0.2s4.1,2.5,5.9,7.5s6.8,5.1,8.4,3.8c1.9-1.6,4.1-2.2,4.1-2.2
		C13.9,41.3,14.6,36.8,10.1,32.3z"/>
</g>
</svg>
