<?xml version="1.0" encoding="utf-8"?>
<!-- Generator: Adobe Illustrator 19.1.0, SVG Export Plug-In . SVG Version: 6.00 Build 0)  -->
<svg version="1.1" id="Plus" xmlns="http://www.w3.org/2000/svg" xmlns:xlink="http://www.w3.org/1999/xlink" x="0px" y="0px"
	 viewBox="-14 16 20 20" style="enable-background:new -14 16 20 20;" xml:space="preserve">
<style type="text/css">
	.st0{fill:#3A4149;}
</style>
<path class="st0" d="M2,26c0,0.6,0,1-0.6,1H-3v4.4C-3,32-3.4,32-4,32c-0.6,0-1,0-1-0.6V27h-4.4c-0.6,0-0.6-0.4-0.6-1
	c0-0.6,0-1,0.6-1H-5v-4.4C-5,20-4.6,20-4,20c0.6,0,1,0,1,0.6V25h4.4C2,25,2,25.4,2,26z"/>
</svg>
