<?xml version="1.0" encoding="utf-8"?>
<!-- Generator: Adobe Illustrator 19.1.0, SVG Export Plug-In . SVG Version: 6.00 Build 0)  -->
<svg version="1.1" id="Layer_1" xmlns="http://www.w3.org/2000/svg" xmlns:xlink="http://www.w3.org/1999/xlink" x="0px" y="0px"
	 viewBox="-105 52.4 50 50" style="enable-background:new -105 52.4 50 50;" xml:space="preserve">
<style type="text/css">
	.st0{fill:#EFCB35;}
</style>
<path class="st0" d="M-71.1,68.8l14.4,2.1c0.9,0.1,1.2,1.2,0.6,1.8l-10.5,10.2c-0.2,0.2-0.4,0.6-0.3,0.9l2.4,14.4
	c0.1,0.9-0.8,1.5-1.5,1.1l-12.9-6.8c-0.3-0.2-0.7-0.2-1,0l-12.9,6.8c-0.8,0.4-1.7-0.3-1.5-1.1l2.5-14.4c0.1-0.3-0.1-0.7-0.3-0.9
	l-10.4-10.2c-0.6-0.6-0.3-1.7,0.6-1.8l14.5-2.1c0.3,0,0.6-0.3,0.8-0.6l6.5-13.1c0.4-0.8,1.5-0.8,1.9,0l6.4,13.1
	C-71.8,68.6-71.5,68.8-71.1,68.8z"/>
</svg>
