<?xml version="1.0" encoding="utf-8"?>
<!-- Generator: Adobe Illustrator 19.0.1, SVG Export Plug-In . SVG Version: 6.00 Build 0)  -->
<svg version="1.1" id="Cog" xmlns="http://www.w3.org/2000/svg" xmlns:xlink="http://www.w3.org/1999/xlink" x="0px" y="0px"
	 viewBox="-139 141 20 20" style="enable-background:new -139 141 20 20;" xml:space="preserve">
<style type="text/css">
	.st0{fill:#EE7B42;}
</style>
<path class="st0" d="M-122.2,151c0-1,0.6-1.9,1.6-2.4c-0.2-0.6-0.4-1.1-0.7-1.7c-1.1,0.3-2-0.1-2.7-0.9c-0.7-0.7-1-1.6-0.7-2.7
	c-0.5-0.3-1.1-0.5-1.7-0.7c-0.6,1-1.6,1.6-2.6,1.6c-1,0-2.1-0.6-2.6-1.6c-0.6,0.2-1.1,0.4-1.7,0.7c0.3,1.1,0.1,2-0.7,2.7
	c-0.7,0.7-1.6,1.2-2.7,0.9c-0.3,0.5-0.5,1.1-0.7,1.7c1,0.6,1.6,1.4,1.6,2.4c0,1-0.6,2.1-1.6,2.6c0.2,0.6,0.4,1.1,0.7,1.7
	c1.1-0.3,2-0.1,2.7,0.7c0.7,0.7,1,1.6,0.7,2.7c0.5,0.3,1.1,0.5,1.7,0.7c0.6-1,1.6-1.6,2.6-1.6c1,0,2.1,0.6,2.6,1.6
	c0.6-0.2,1.1-0.4,1.7-0.7c-0.3-1.1-0.1-2,0.7-2.7c0.7-0.7,1.6-1.2,2.7-0.9c0.3-0.5,0.5-1.1,0.7-1.7
	C-121.6,152.9-122.2,152-122.2,151z M-129,154.7c-2,0-3.7-1.6-3.7-3.7c0-2,1.6-3.7,3.7-3.7c2,0,3.7,1.6,3.7,3.7
	C-125.3,153-127,154.7-129,154.7z"/>
</svg>
