<?xml version="1.0" encoding="utf-8"?>
<!-- Generator: Adobe Illustrator 19.0.1, SVG Export Plug-In . SVG Version: 6.00 Build 0)  -->
<svg version="1.1" id="Layer_1" xmlns="http://www.w3.org/2000/svg" xmlns:xlink="http://www.w3.org/1999/xlink" x="0px" y="0px"
	 viewBox="5 56.9 309 36.5" style="enable-background:new 5 56.9 309 36.5;" xml:space="preserve">
<style type="text/css">
	.st0{fill:#ECEBF2;}
	.st1{fill:#ECEBF3;}
	.st2{fill:none;stroke:#5EAFBD;stroke-width:1.8487;stroke-miterlimit:10;}
	.st3{fill:#5EAFBD;}
	.st4{fill:#C8D6D5;}
	.st5{font-family:'FuturaPT-Book';}
	.st6{font-size:12px;}
</style>
<rect id="bg_global_1_" x="9.2" y="58.9" class="st0" width="300" height="32.7"/>
<g>
	
		<image style="overflow:visible;opacity:0.75;enable-background:new    ;" width="314" height="43" xlink:href="422DC0FAB2B30866.png"  transform="matrix(0.9964 0 0 0.9964 3.8363 54.8846)">
	</image>
	<g>
		<rect x="7.6" y="58.9" class="st1" width="303.7" height="32.7"/>
		<rect x="7.6" y="58.9" class="st2" width="303.7" height="32.7"/>
	</g>
</g>
<path class="st3" d="M56,83.3l-5.2-5.2c0.8-1.3,1.2-2.8,1.2-4.4c0-4.7-4.1-8.8-8.8-8.8s-8.5,3.8-8.5,8.5c0,4.7,4.1,8.8,8.8,8.8
	c1.6,0,3-0.4,4.3-1.2l5.2,5.2c0.5,0.5,1.3,0.5,1.9,0l1.3-1.3C56.7,84.4,56.6,83.8,56,83.3z M37.4,73.4c0-3.3,2.6-5.9,5.9-5.9
	c3.3,0,6.2,2.9,6.2,6.2c0,3.3-2.6,5.9-5.9,5.9C40.3,79.5,37.4,76.6,37.4,73.4z"/>
<text transform="matrix(1 0 0 1 69.6764 79.2341)" class="st4 st5 st6">Search for books/authors</text>
</svg>
