<?xml version="1.0" encoding="utf-8"?>
<!-- Generator: Adobe Illustrator 19.0.1, SVG Export Plug-In . SVG Version: 6.00 Build 0)  -->
<svg version="1.1" id="Layer_1" xmlns="http://www.w3.org/2000/svg" xmlns:xlink="http://www.w3.org/1999/xlink" x="0px" y="0px"
	 viewBox="0 0 306.2 57.5" style="enable-background:new 0 0 306.2 57.5;" xml:space="preserve">
<style type="text/css">
	.st0{fill:#EE7B42;}
	.st1{fill:#F2EA29;}
	.st2{fill:none;stroke:#F2EA29;stroke-width:1.8259;stroke-miterlimit:10;}
</style>
<g>
	<g>
		<polygon class="st0" points="31.5,1.2 40.1,18.7 59.4,21.5 45.5,35.1 48.8,54.3 31.5,45.2 14.3,54.3 17.6,35.1 3.6,21.5 
			22.9,18.7 		"/>
		<polygon class="st1" points="29.7,2.1 38.3,19.6 57.6,22.4 43.6,36 46.9,55.2 29.7,46.1 12.4,55.2 15.7,36 1.8,22.4 21.1,19.6 		
			"/>
	</g>
	<g>
		<polygon class="st0" points="92.1,1.2 100.7,18.7 120,21.5 106,35.1 109.3,54.3 92.1,45.2 74.8,54.3 78.1,35.1 64.2,21.5 
			83.4,18.7 		"/>
		<polygon class="st1" points="90.2,2.1 98.9,19.6 118.1,22.4 104.2,36 107.5,55.2 90.2,46.1 73,55.2 76.3,36 62.3,22.4 81.6,19.6 
					"/>
	</g>
	<g>
		<polygon class="st0" points="152.3,1.2 160.9,18.7 180.2,21.5 166.3,35.1 169.6,54.3 152.3,45.2 135.1,54.3 138.4,35.1 
			124.4,21.5 143.7,18.7 		"/>
		<polygon class="st1" points="150.5,2.1 159.1,19.6 178.4,22.4 164.5,36 167.7,55.2 150.5,46.1 133.3,55.2 136.5,36 122.6,22.4 
			141.9,19.6 		"/>
	</g>
	<g>
		<polygon class="st0" points="212.9,1.2 221.5,18.7 240.8,21.5 226.8,35.1 230.1,54.3 212.9,45.2 195.6,54.3 198.9,35.1 185,21.5 
			204.3,18.7 		"/>
		<polygon class="st1" points="211.1,2.1 219.7,19.6 239,22.4 225,36 228.3,55.2 211.1,46.1 193.8,55.2 197.1,36 183.2,22.4 
			202.4,19.6 		"/>
	</g>
	<polygon class="st2" points="273.9,2.1 282.5,19.6 301.8,22.4 287.8,36 291.1,55.2 273.9,46.1 256.6,55.2 259.9,36 246,22.4 
		265.3,19.6 	"/>
</g>
</svg>
