<?xml version="1.0" encoding="utf-8"?>
<!-- Generator: Adobe Illustrator 19.0.1, SVG Export Plug-In . SVG Version: 6.00 Build 0)  -->
<svg version="1.1" id="Layer_1" xmlns="http://www.w3.org/2000/svg" xmlns:xlink="http://www.w3.org/1999/xlink" x="0px" y="0px"
	 viewBox="0 0 180 88" style="enable-background:new 0 0 180 88;" xml:space="preserve">
<style type="text/css">
	.st0{fill:#ECEBF2;}
	.st1{fill:#C8D6D5;}
	.st2{fill:#C8D7D5;}
</style>
<rect class="st0" width="180" height="88"/>
<g>
	<path id="edit2-max-hover_1_" class="st1" d="M155.8,17.3c-4.8-4.9-8.5-4.1-8.5-4.1L127,33.5l-22.8,22.8l-3.4,16l16-3.4l22.8-22.8
		l20.3-20.3C159.9,25.8,160.7,22.2,155.8,17.3z M115.9,67l-5.5,1.2c-0.5-1-1.2-2-2.3-3.1c-1.2-1.2-2.1-1.8-3.1-2.3l1.2-5.5l1.6-1.6
		c0,0,3,0.1,6.3,3.4c3.4,3.3,3.4,6.3,3.4,6.3L115.9,67z"/>
	<path id="arrow-max-hover_1_" class="st2" d="M47.4,11.7l32.1,32.1h-15v29.9H30.3V43.8h-15L47.4,11.7z"/>
</g>
</svg>
