<?xml version="1.0" encoding="utf-8"?>
<!-- Generator: Adobe Illustrator 19.0.1, SVG Export Plug-In . SVG Version: 6.00 Build 0)  -->
<svg version="1.1" id="Layer_1" xmlns="http://www.w3.org/2000/svg" xmlns:xlink="http://www.w3.org/1999/xlink" x="0px" y="0px"
	 viewBox="0 0 300 45.4" style="enable-background:new 0 0 300 45.4;" xml:space="preserve">
<style type="text/css">
	.st0{fill:#C8D6D5;}
	.st1{fill:#042A2B;}
</style>
<rect id="footer-shelves-mobile_4_" x="0" y="0" class="st0" width="300" height="45.4"/>
<path class="st1" d="M147,15.8c-1.1,0.8-1.3,2-1.3,2.7c0.1,0.8,0.2,1.9,0.2,1.9s-0.3,0.2-0.3,0.9c0.1,1.8,0.7,1,0.8,1.8
	c0.3,1.9,1,1.5,1,2.6c0,1.7-0.7,2.5-2.9,3.4c-2.2,0.9-4.5,2.1-4.5,4.2v1h18.6v-1c0-2.1-2.3-3.3-4.5-4.2c-2.2-0.9-2.9-1.7-2.9-3.4
	c0-1,0.7-0.7,1-2.6c0.1-0.8,0.7,0,0.8-1.8c0-0.7-0.3-0.9-0.3-0.9s0.2-1,0.2-1.9c0.1-0.8-0.4-2.6-2.4-3.2c-0.3-0.4-0.6-0.9,0.5-1.5
	C148.8,13.7,148.2,14.9,147,15.8z"/>
<path class="st1" d="M209,13.2c-5.3,0-9.5,4.3-9.5,9.5s4.3,9.5,9.5,9.5c5.3,0,9.5-4.3,9.5-9.5S214.2,13.2,209,13.2z M217.1,22.7
	c0,1.9-0.6,3.6-1.7,4.9c-0.3-0.2-0.6-0.9-0.3-1.5c0.3-0.7,0.4-2.2,0.3-2.8c-0.1-0.6-0.4-2-1.2-2c-0.8,0-1.4-0.3-1.9-1.3
	c-1-2.1,1.9-2.4,0.9-3.6c-0.3-0.3-1.8,1.3-2-0.9c0-0.2,0.1-0.4,0.3-0.6C214.8,16.1,217.1,19.1,217.1,22.7z M207.9,14.7
	c-0.2,0.4-0.7,0.5-1,0.8c-0.7,0.6-1,0.5-1.3,1.1c-0.4,0.6-1.6,1.4-1.6,1.9s0.6,0.9,0.9,0.8c0.3-0.1,1.1-0.1,1.6,0.1
	c0.5,0.2,3.9,0.3,2.8,3.2c-0.3,0.9-1.9,0.8-2.3,2.3c-0.1,0.2-0.3,1.2-0.3,1.5c0,0.5,0.3,2.3-0.1,2.3c-0.5,0-1.7-1.6-1.7-1.9
	s-0.3-1.3-0.3-2.2c0-0.9-1.5-0.9-1.5-2c0-1.1,0.8-1.6,0.6-2.1c-0.2-0.5-1.6-0.5-2.2-0.6C202.4,17.1,204.9,15.1,207.9,14.7z
	 M206.4,30.4c0.5-0.3,0.5-0.6,1-0.6c0.5,0,0.9-0.2,1.5-0.3c0.5-0.1,1.4-0.6,2.2-0.7c0.7-0.1,2,0,2.4,0.7c-1.3,0.9-2.8,1.4-4.5,1.4
	C208.1,30.9,207.2,30.7,206.4,30.4z"/>
<path class="st1" d="M84.6,27.4v-7.5H80c-1.3,0-2.4,1.1-2.4,2.4v7.3c0,1.3,1.1,2.4,2.4,2.4h1.2v3.6l3.6-3.6h6.1
	c1.3,0,2.4-1.1,2.4-2.4v-2.2c-0.1,0-0.2,0-0.2,0L84.6,27.4L84.6,27.4z M99.4,13.8H88.5c-1.3,0-2.4,1.1-2.4,2.4v9.7h8.5l3.6,3.6v-3.6
	h1.2c1.3,0,2.4-1.1,2.4-2.4v-7.3C101.8,14.9,100.7,13.8,99.4,13.8z"/>
<polygon class="st0" points="27.4,14.7 30,13 38.7,17.6 38.7,27.7 36.4,29.6 36.1,20.3 35,19.4 27.7,14.9 "/>
<path class="st1" d="M40.2,17.5v9.9c0,0.5-0.4,0.7-1,1.1c-0.4,0.3-1-0.1-1-0.6c0,0,0-9.5,0-9.7c0-0.2-0.1-0.4-0.3-0.5
	s-7.4-3.9-7.4-3.9c-0.1,0-0.6-0.4-1.3,0c-0.6,0.3-1,0.7-1.1,0.9L36,19c0.2,0.1,0.3,0.3,0.3,0.5v10.3c0,0.2-0.1,0.5-0.4,0.6
	c-0.1,0-0.2,0.1-0.3,0.1c-0.1,0-0.3,0-0.4-0.1c-0.2-0.1-7.4-4.6-7.9-4.8c-0.2-0.1-0.5-0.4-0.5-0.6l-0.1-9.8c0-0.2,0-0.5,0.3-1
	c0.7-1,3-2.2,4.2-1.6l8.6,4.4C40,16.9,40.2,17.2,40.2,17.5z"/>
<polygon class="st0" points="24.4,16.6 27,15 35.7,19.6 35.7,29.6 33.3,31.5 33.1,22.2 32,21.3 24.7,16.9 "/>
<path class="st1" d="M36.7,19.6v9.9c0,0.5-0.4,0.7-1,1.1c-0.4,0.3-1-0.1-1-0.6c0,0,0-9.5,0-9.7c0-0.2-0.1-0.4-0.3-0.5
	c-0.2-0.1-7.4-3.9-7.4-3.9c-0.1,0-0.6-0.4-1.3,0c-0.6,0.3-1,0.7-1.1,0.9l7.8,4.3c0.2,0.1,0.3,0.3,0.3,0.5v10.3
	c0,0.2-0.1,0.5-0.4,0.6c-0.1,0-0.2,0.1-0.3,0.1c-0.1,0-0.3,0-0.4-0.1c-0.2-0.1-7.4-4.6-7.9-4.8c-0.2-0.1-0.5-0.4-0.5-0.6l-0.1-9.8
	c0-0.2,0-0.5,0.3-1c0.7-1,3-2.2,4.2-1.6l8.6,4.4C36.6,19,36.7,19.2,36.7,19.6z"/>
<polygon class="st0" points="20.6,18.7 23.3,17.1 32,21.7 32,31.7 29.6,33.7 29.4,24.4 28.3,23.4 20.9,19 "/>
<path class="st1" d="M33.4,21.5v9.9c0,0.5-0.4,0.7-1,1.1c-0.4,0.3-1-0.1-1-0.6c0,0,0-9.5,0-9.7c0-0.2-0.1-0.4-0.3-0.5
	c-0.2-0.1-7.4-3.9-7.4-3.9c-0.1,0-0.6-0.4-1.3,0c-0.6,0.3-1,0.7-1.1,0.9l7.8,4.3c0.2,0.1,0.3,0.3,0.3,0.5v10.3
	c0,0.2-0.1,0.5-0.4,0.6c-0.1,0-0.2,0.1-0.3,0.1c-0.1,0-0.3,0-0.4-0.1c-0.2-0.1-7.4-4.6-7.9-4.8c-0.2-0.1-0.5-0.4-0.5-0.6L20,19.1
	c0-0.2,0-0.5,0.3-1c0.7-1,3-2.2,4.2-1.6l8.6,4.4C33.2,21,33.4,21.2,33.4,21.5z"/>
<path class="st1" d="M278.8,21.8h-20.3c-0.9,0-1,0.7-1,1.6c0,0.9,0.1,1.6,1,1.6h20.3c0.9,0,1-0.7,1-1.6S279.6,21.8,278.8,21.8z
	 M278.8,28.2h-20.3c-0.9,0-1,0.7-1,1.6s0.1,1.6,1,1.6h20.3c0.9,0,1-0.7,1-1.6S279.6,28.2,278.8,28.2z M258.4,18.6h20.3
	c0.9,0,1-0.7,1-1.6s-0.1-1.6-1-1.6h-20.3c-0.9,0-1,0.7-1,1.6S257.6,18.6,258.4,18.6z"/>
</svg>
