<?xml version="1.0" encoding="utf-8"?>
<!-- Generator: Adobe Illustrator 19.0.1, SVG Export Plug-In . SVG Version: 6.00 Build 0)  -->
<svg version="1.1" id="Layer_1" xmlns="http://www.w3.org/2000/svg" xmlns:xlink="http://www.w3.org/1999/xlink" x="0px" y="0px"
	 viewBox="-53 54.8 191.9 39.5" style="enable-background:new -53 54.8 191.9 39.5;" xml:space="preserve">
<style type="text/css">
	.st0{fill:#ECEBF3;}
	.st1{fill:none;stroke:#5EAFBD;stroke-width:2;stroke-miterlimit:10;}
	.st2{fill:#5EAFBD;}
	.st3{fill:#C8D6D5;}
	.st4{font-family:'FuturaPT-Book';}
	.st5{font-size:13px;}
</style>
<g>
	
		<image style="overflow:visible;opacity:0.75;enable-background:new    ;" width="198" height="48" xlink:href="9420BFFCB3EC8AE3.png"  transform="matrix(0.9941 0 0 0.9941 -55.2004 52.2408)">
	</image>
	<g>
		<rect x="-51.4" y="56.5" class="st0" width="186.3" height="36.3"/>
		<rect x="-51.4" y="56.5" class="st1" width="186.3" height="36.3"/>
	</g>
</g>
<path class="st2" d="M-23.1,82.1l-5-5c0.7-1.2,1.2-2.7,1.2-4.2c0-4.5-3.9-8.4-8.4-8.4s-8.1,3.6-8.1,8.1S-39.5,81-35,81
	c1.5,0,2.9-0.4,4.1-1.1l5,5c0.5,0.5,1.3,0.5,1.8,0l1.2-1.2C-22.4,83.2-22.6,82.6-23.1,82.1z M-40.8,72.7c0-3.1,2.5-5.6,5.6-5.6
	c3.1,0,5.9,2.8,5.9,5.9s-2.5,5.6-5.6,5.6C-38,78.5-40.8,75.8-40.8,72.7z"/>
<text transform="matrix(1 0 0 1 -13.0943 79.2124)" class="st3 st4 st5">Search for books/authors</text>
</svg>
