<?xml version="1.0" encoding="utf-8"?>
<!-- Generator: Adobe Illustrator 19.0.1, SVG Export Plug-In . SVG Version: 6.00 Build 0)  -->
<svg version="1.1" id="Layer_1" xmlns="http://www.w3.org/2000/svg" xmlns:xlink="http://www.w3.org/1999/xlink" x="0px" y="0px"
	 viewBox="0 0 784 161" style="enable-background:new 0 0 784 161;" xml:space="preserve">
<style type="text/css">
	.st0{fill:#ECEBF2;}
	.st1{fill:#5EAFBD;}
	.st2{font-family:'FuturaPT-Book';}
	.st3{font-size:29.4936px;}
	.st4{letter-spacing:2;}
	.st5{font-family:'FuturaPT-Heavy';}
	.st6{fill:#ECEBF3;}
	.st7{fill:none;stroke:#5EAFBD;stroke-width:2;stroke-miterlimit:10;}
	.st8{fill:#C8D6D5;}
	.st9{font-size:13px;}
	.st10{fill:#EE7B42;}
	.st11{fill:#FFFFFF;}
	.st12{font-size:7px;}
	.st13{font-size:17px;}
	.st14{font-size:12px;}
	.st15{fill:#042A2B;}
	.st16{font-size:20px;}
</style>
<rect id="bg_max" y="0" class="st0" width="784" height="161"/>
<g id="head-max-hover_1_">
	<path id="head-max-hover" class="st1" d="M0,13.6L562.4,15l-22.2,29.3l21.1,27.9H0C0,13.6,0,72.2,0,13.6z"/>
	<text transform="matrix(1 0 0 1 19.5 52.7661)"><tspan x="0" y="0" class="st0 st2 st3 st4">good</tspan><tspan x="71.4" y="0" class="st0 st5 st3">reads</tspan></text>
</g>
<g>
	
		<image style="overflow:visible;opacity:0.75;" width="196" height="46" xlink:href="6D7D668020204FCB.png"  transform="matrix(1 0 0 1 572.5273 21.9105)">
	</image>
	<g>
		<rect x="575.7" y="25.6" class="st6" width="186.3" height="36.3"/>
		<rect x="575.7" y="25.6" class="st7" width="186.3" height="36.3"/>
	</g>
</g>
<path class="st1" d="M604,51.1l-5-5c0.7-1.2,1.2-2.7,1.2-4.2c0-4.5-3.9-8.4-8.4-8.4c-4.5,0-8.1,3.6-8.1,8.1c0,4.5,3.9,8.4,8.4,8.4
	c1.5,0,2.9-0.4,4.1-1.1l5,5c0.5,0.5,1.3,0.5,1.8,0l1.2-1.2C604.7,52.2,604.5,51.6,604,51.1z M586.3,41.7c0-3.1,2.5-5.6,5.6-5.6
	c3.1,0,5.9,2.8,5.9,5.9c0,3.1-2.5,5.6-5.6,5.6C589,47.6,586.3,44.8,586.3,41.7z"/>
<text transform="matrix(1 0 0 1 614 48.2504)" class="st8 st2 st9">Search for books/authors</text>
<path class="st1" d="M784,123.4l-249-1l15.7-20.7L535,81l249,1C784,123.4,784,82,784,123.4z"/>
<path class="st0" d="M700.4,105.9V97h-5.5c-1.6,0-2.9,1.3-2.9,2.9v8.6c0,1.6,1.3,2.9,2.9,2.9h1.4v4.3l4.3-4.3h7.2
	c1.6,0,2.9-1.3,2.9-2.9v-2.6c-0.1,0-0.2,0-0.3,0L700.4,105.9L700.4,105.9z M717.9,89.8H705c-1.6,0-2.9,1.3-2.9,2.9v11.5h10.1
	l4.3,4.3v-4.3h1.4c1.6,0,2.9-1.3,2.9-2.9v-8.6C720.8,91.1,719.5,89.8,717.9,89.8z"/>
<path class="st1" d="M750.9,88.6c-7.2,0-13.1,5.9-13.1,13.1s5.9,13.1,13.1,13.1c7.2,0,13.1-5.9,13.1-13.1S758.1,88.6,750.9,88.6z
	 M762.1,101.7c0,2.6-0.9,4.9-2.3,6.8c-0.4-0.3-0.8-1.2-0.4-2.1c0.4-0.9,0.5-3,0.4-3.8c-0.1-0.8-0.5-2.8-1.7-2.8
	c-1.1,0-1.9-0.4-2.6-1.7c-1.4-2.8,2.6-3.4,1.2-4.9c-0.4-0.4-2.4,1.8-2.7-1.2c0-0.2,0.2-0.5,0.5-0.9
	C758.9,92.6,762.1,96.8,762.1,101.7z M749.4,90.7c-0.3,0.5-1,0.7-1.4,1.1c-0.9,0.8-1.3,0.7-1.8,1.5c-0.5,0.8-2.1,2-2.1,2.6
	c0,0.6,0.8,1.3,1.2,1.1c0.4-0.1,1.5-0.1,2.1,0.1c0.6,0.2,5.3,0.5,3.8,4.4c-0.5,1.3-2.6,1-3.1,3.1c-0.1,0.3-0.4,1.6-0.4,2
	c0,0.7,0.5,3.2-0.2,3.2c-0.6,0-2.4-2.2-2.4-2.6s-0.4-1.8-0.4-3c0-1.2-2.1-1.2-2.1-2.8c0-1.5,1.1-2.2,0.9-2.9c-0.2-0.7-2.2-0.7-3-0.8
	C741.9,94,745.3,91.2,749.4,90.7z M747.4,112.3c0.7-0.4,0.7-0.8,1.3-0.8c0.7,0,1.3-0.3,2-0.4c0.7-0.2,1.9-0.9,3-0.9
	c0.9-0.1,2.7,0,3.2,0.9c-1.8,1.2-3.9,1.9-6.2,1.9C749.7,112.9,748.5,112.7,747.4,112.3z"/>
<path class="st0" d="M750,91.4c-6.2,0-11.3,5.1-11.3,11.3c0,6.2,5.1,11.3,11.3,11.3c6.2,0,11.3-5.1,11.3-11.3
	C761.2,96.5,756.2,91.4,750,91.4z M759.6,102.7c0,2.2-0.7,4.2-2,5.9c-0.4-0.3-0.7-1-0.4-1.8c0.4-0.8,0.4-2.6,0.4-3.3
	c-0.1-0.7-0.4-2.4-1.4-2.4c-1,0-1.7-0.3-2.2-1.5c-1.2-2.4,2.3-2.9,1.1-4.2c-0.3-0.4-2.1,1.6-2.4-1c0-0.2,0.2-0.5,0.4-0.7
	C756.8,94.9,759.6,98.5,759.6,102.7z M748.6,93.2c-0.2,0.4-0.8,0.6-1.2,1c-0.8,0.7-1.1,0.6-1.6,1.3c-0.4,0.7-1.8,1.7-1.8,2.2
	s0.7,1.1,1.1,1c0.4-0.1,1.3-0.1,1.8,0.1c0.6,0.2,4.6,0.4,3.3,3.8c-0.4,1.1-2.2,0.9-2.7,2.7c-0.1,0.3-0.3,1.4-0.3,1.8
	c0,0.6,0.4,2.7-0.1,2.7c-0.6,0-2-1.9-2-2.3c0-0.3-0.4-1.6-0.4-2.6c0-1-1.8-1-1.8-2.4c0-1.3,1-1.9,0.8-2.5c-0.2-0.6-1.9-0.6-2.6-0.7
	C742.2,96,745.1,93.7,748.6,93.2z M746.9,111.8c0.6-0.3,0.6-0.7,1.2-0.7c0.6,0,1.1-0.2,1.8-0.4c0.6-0.1,1.7-0.7,2.6-0.8
	c0.8-0.1,2.4,0,2.8,0.8c-1.5,1-3.3,1.6-5.3,1.6C748.9,112.3,747.9,112.2,746.9,111.8z"/>
<path class="st0" d="M623.4,103.6c0.2-0.4,0.6-0.7,1-0.8c0.4,0,0.8-0.4,0.8-0.8c0-0.4,0.4-0.9,0.8-1c0.4-0.2,0.6-0.6,0.5-1
	c-0.1-0.4,0.1-0.9,0.4-1.2c0.3-0.3,0.4-0.8,0.2-1.1c-0.2-0.3-0.2-0.9,0-1.3c0.2-0.4,0.1-0.9-0.2-1.1c-0.3-0.3-0.5-0.8-0.4-1.2
	c0.1-0.4-0.2-0.9-0.5-1c-0.4-0.2-0.7-0.6-0.8-1c0-0.4-0.4-0.8-0.8-0.8c-0.4,0-0.9-0.4-1-0.8c-0.2-0.4-0.6-0.6-1-0.5
	c-0.4,0.1-0.9-0.1-1.2-0.4c-0.3-0.3-0.8-0.4-1.1-0.2s-0.9,0.2-1.3,0c-0.4-0.2-0.9-0.1-1.1,0.2c-0.3,0.3-0.8,0.5-1.2,0.4
	c-0.4-0.1-0.9,0.2-1,0.5c-0.2,0.4-0.6,0.7-1,0.7c-0.4,0-0.8,0.4-0.8,0.8c0,0.4-0.4,0.9-0.8,1c-0.4,0.2-0.6,0.6-0.5,1
	c0.1,0.4-0.1,0.9-0.4,1.2c-0.3,0.3-0.4,0.8-0.2,1.1c0.2,0.3,0.2,0.9,0,1.3c-0.2,0.4-0.1,0.9,0.2,1.1c0.3,0.3,0.5,0.8,0.4,1.2
	c-0.1,0.4,0.2,0.9,0.5,1c0.4,0.2,0.7,0.6,0.8,1c0,0.4,0.4,0.8,0.8,0.8c0.4,0,0.9,0.4,1,0.8c0.2,0.4,0.6,0.6,1,0.5
	c0.4-0.1,0.9,0.1,1.2,0.4c0.3,0.3,0.8,0.4,1.1,0.2c0.3-0.2,0.9-0.2,1.3,0s0.9,0.1,1.1-0.2c0.3-0.3,0.8-0.5,1.2-0.4
	C622.7,104.2,623.2,104,623.4,103.6z M619.3,101.8c-2.7,0-4.8-2.2-4.8-4.8c0-2.7,2.2-4.8,4.8-4.8c2.7,0,4.8,2.2,4.8,4.8
	C624.2,99.7,622,101.8,619.3,101.8z M613.6,104.7l-1.8,10l4.4-0.7l4,2.1l1.8-10c-0.8,0.2-1.7,0.4-2.7,0.4
	C617.2,106.6,615.2,105.9,613.6,104.7z M625,104.8c-0.4,0.3-0.9,0.6-1.4,0.8l-1.1,6l4.8-2.6L625,104.8z"/>
<path class="st0" d="M660.1,93c-1.2,0.9-1.6,2.4-1.5,3.2c0.1,1,0.3,2.2,0.3,2.2s-0.4,0.2-0.4,1c0.1,2.1,0.8,1.2,1,2.1
	c0.3,2.2,1.1,1.8,1.1,3c0,2-0.8,3-3.4,4.1c-2.6,1.1-5.3,2.5-5.3,5v1.2h22v-1.2c0-2.4-2.7-3.9-5.3-5c-2.6-1.1-3.4-2.1-3.4-4.1
	c0-1.2,0.8-0.8,1.1-3c0.1-0.9,0.8,0,1-2.1c0-0.8-0.4-1-0.4-1s0.2-1.2,0.3-2.2c0.1-1-0.5-3.1-2.8-3.8c-0.4-0.4-0.7-1.1,0.6-1.7
	C662.2,90.5,661.6,91.9,660.1,93z"/>
<g>
	<circle class="st10" cx="628" cy="92.6" r="3.8"/>
	<text transform="matrix(1 0 0 1 626.2056 94.7714)" class="st11 st5 st12">3</text>
</g>
<g>
	<circle class="st10" cx="669.4" cy="92.6" r="3.8"/>
	<text transform="matrix(1 0 0 1 667.3931 94.7714)" class="st11 st5 st12">2</text>
</g>
<g>
	<circle class="st10" cx="721.3" cy="92.6" r="3.8"/>
	<text transform="matrix(1 0 0 1 719.2681 94.7714)" class="st11 st5 st12">1</text>
</g>
<g>
	<circle class="st10" cx="759.2" cy="92.6" r="3.8"/>
	<text transform="matrix(1 0 0 1 757.1431 94.7714)" class="st11 st5 st12">5</text>
</g>
<g id="amazon-max-hover_1_">
	<path id="amazon-max-hover" class="st1" d="M552.7,122.4l-215.7-1l15.7-20.7L336.9,80l215.7,1.2
		C552.7,122.6,552.7,81.2,552.7,122.4z"/>
	<text transform="matrix(1 0 0 1 425.4499 99.3172)"><tspan x="0" y="0" class="st0 st5 st13">NEW</tspan><tspan x="-53.8" y="14.4" class="st0 st2 st14">Sync your books from Amazon!</tspan></text>
</g>
<rect x="316.8" y="74.7" class="st0" width="467.2" height="7.3"/>
<text transform="matrix(1 0 0 1 19.5 121.7207)" class="st15 st2 st16">WELCOME!</text>
</svg>
