<?xml version="1.0" encoding="utf-8"?>
<!-- Generator: Adobe Illustrator 19.0.1, SVG Export Plug-In . SVG Version: 6.00 Build 0)  -->
<svg version="1.1" id="Layer_1" xmlns="http://www.w3.org/2000/svg" xmlns:xlink="http://www.w3.org/1999/xlink" x="0px" y="0px"
	 viewBox="0 0 38.8 59.7" style="enable-background:new 0 0 38.8 59.7;" xml:space="preserve">
<style type="text/css">
	.st0{fill:#5EAFBD;}
</style>
<path class="st0" d="M27.4,31.9c0.4-0.8,1.3-1.5,2.2-1.6c0.8-0.1,1.6-0.9,1.7-1.7c0.1-0.8,0.8-1.8,1.6-2.2c0.8-0.4,1.3-1.3,1.1-2.2
	c-0.2-0.8,0.2-2,0.8-2.6c0.6-0.6,0.8-1.7,0.4-2.4c-0.4-0.7-0.4-2,0-2.7c0.4-0.7,0.2-1.8-0.4-2.4c-0.6-0.6-1-1.7-0.8-2.6
	c0.2-0.8-0.3-1.8-1.1-2.2c-0.8-0.4-1.5-1.3-1.6-2.2c-0.1-0.8-0.9-1.6-1.7-1.7c-0.8-0.1-1.8-0.8-2.2-1.6c-0.4-0.8-1.3-1.3-2.2-1.1
	c-0.8,0.2-2-0.2-2.6-0.8c-0.6-0.6-1.7-0.8-2.4-0.4c-0.7,0.4-2,0.4-2.7,0c-0.7-0.4-1.8-0.3-2.4,0.4c-0.6,0.6-1.7,1-2.6,0.8
	c-0.8-0.2-1.8,0.3-2.2,1.1c-0.4,0.8-1.3,1.5-2.2,1.6C7.5,5.7,6.7,6.5,6.6,7.3C6.5,8.2,5.8,9.1,5,9.5c-0.8,0.4-1.3,1.3-1.1,2.2
	c0.2,0.8-0.2,2-0.8,2.6c-0.6,0.6-0.8,1.7-0.4,2.4c0.4,0.7,0.4,2,0,2.7c-0.4,0.7-0.2,1.8,0.4,2.4c0.6,0.6,1,1.7,0.8,2.6
	c-0.2,0.8,0.3,1.8,1.1,2.2c0.8,0.4,1.5,1.3,1.6,2.2c0.1,0.8,0.9,1.6,1.7,1.7s1.8,0.8,2.2,1.6c0.4,0.8,1.3,1.3,2.2,1.1
	c0.8-0.2,2,0.2,2.6,0.8c0.6,0.6,1.7,0.8,2.4,0.4c0.7-0.4,2-0.4,2.7,0c0.7,0.4,1.8,0.2,2.4-0.4c0.6-0.6,1.7-1,2.6-0.8
	C26.1,33.2,27.1,32.7,27.4,31.9z M19,28.2c-5.6,0-10.2-4.6-10.2-10.2c0-5.6,4.6-10.2,10.2-10.2S29.2,12.3,29.2,18
	C29.2,23.6,24.6,28.2,19,28.2z M6.9,34.2L3.2,55.3l9.4-1.4l8.3,4.5l3.7-21.1c-1.8,0.5-3.7,0.8-5.6,0.8C14.4,38.2,10.3,36.7,6.9,34.2
	z M30.9,34.3c-0.9,0.7-1.9,1.3-3,1.8l-2.2,12.7l10.1-5.5L30.9,34.3z"/>
</svg>
