<?xml version="1.0" encoding="utf-8"?>
<!-- Generator: Adobe Illustrator 19.0.1, SVG Export Plug-In . SVG Version: 6.00 Build 0)  -->
<svg version="1.1" id="Layer_1" xmlns="http://www.w3.org/2000/svg" xmlns:xlink="http://www.w3.org/1999/xlink" x="0px" y="0px"
	 viewBox="0 0 195.1 39.8" style="enable-background:new 0 0 195.1 39.8;" xml:space="preserve">
<style type="text/css">
	.st0{fill:#5EAFBD;}
	.st1{fill:#ECEBF2;}
	.st2{fill:#EE7B42;}
	.st3{fill:#FFFFFF;}
	.st4{font-family:'FuturaPT-Heavy';}
	.st5{font-size:7px;}
</style>
<g>
	<path class="st0" d="M195.1,41.2L0,40.2L0-1.2l195.1,1C195.1,41.2,195.1-0.1,195.1,41.2z"/>
	<path class="st1" d="M111.5,23.7v-8.9H106c-1.6,0-2.9,1.3-2.9,2.9v8.6c0,1.6,1.3,2.9,2.9,2.9h1.4v4.3l4.3-4.3h7.2
		c1.6,0,2.9-1.3,2.9-2.9v-2.6c-0.1,0-0.2,0-0.3,0L111.5,23.7L111.5,23.7z M129,7.6h-12.9c-1.6,0-2.9,1.3-2.9,2.9V22h10.1l4.3,4.3V22
		h1.4c1.6,0,2.9-1.3,2.9-2.9v-8.6C131.9,8.9,130.6,7.6,129,7.6z"/>
	<path class="st1" d="M161.1,9.2c-6.2,0-11.3,5.1-11.3,11.3s5.1,11.3,11.3,11.3c6.2,0,11.3-5.1,11.3-11.3S167.3,9.2,161.1,9.2z
		 M170.7,20.5c0,2.2-0.7,4.2-2,5.9c-0.4-0.3-0.7-1-0.4-1.8c0.4-0.8,0.4-2.6,0.4-3.3c-0.1-0.7-0.4-2.4-1.4-2.4c-1,0-1.7-0.3-2.2-1.5
		c-1.2-2.4,2.3-2.9,1.1-4.2c-0.3-0.4-2.1,1.6-2.4-1c0-0.2,0.2-0.5,0.4-0.7C167.9,12.7,170.7,16.3,170.7,20.5z M159.7,11
		c-0.2,0.4-0.8,0.6-1.2,1c-0.8,0.7-1.1,0.6-1.6,1.3c-0.4,0.7-1.8,1.7-1.8,2.2c0,0.5,0.7,1.1,1.1,1c0.4-0.1,1.3-0.1,1.8,0.1
		c0.6,0.2,4.6,0.4,3.3,3.8c-0.4,1.1-2.2,0.9-2.7,2.7c-0.1,0.3-0.3,1.4-0.3,1.8c0,0.6,0.4,2.7-0.1,2.7c-0.6,0-2-1.9-2-2.3
		c0-0.3-0.4-1.6-0.4-2.6c0-1-1.8-1-1.8-2.4c0-1.3,1-1.9,0.8-2.5c-0.2-0.6-1.9-0.6-2.6-0.7C153.3,13.9,156.2,11.5,159.7,11z
		 M158,29.7c0.6-0.3,0.6-0.7,1.2-0.7c0.6,0,1.1-0.2,1.8-0.4c0.6-0.1,1.7-0.7,2.6-0.8c0.8-0.1,2.4,0,2.8,0.8c-1.5,1-3.3,1.6-5.3,1.6
		C160,30.1,159,30,158,29.7z"/>
	<path class="st1" d="M34.5,21.4c0.2-0.4,0.6-0.7,1-0.8c0.4,0,0.8-0.4,0.8-0.8c0-0.4,0.4-0.9,0.8-1c0.4-0.2,0.6-0.6,0.5-1
		c-0.1-0.4,0.1-0.9,0.4-1.2c0.3-0.3,0.4-0.8,0.2-1.1c-0.2-0.3-0.2-0.9,0-1.3c0.2-0.4,0.1-0.9-0.2-1.1c-0.3-0.3-0.5-0.8-0.4-1.2
		c0.1-0.4-0.2-0.9-0.5-1c-0.4-0.2-0.7-0.6-0.8-1c0-0.4-0.4-0.8-0.8-0.8c-0.4,0-0.9-0.4-1-0.8c-0.2-0.4-0.6-0.6-1-0.5
		c-0.4,0.1-0.9-0.1-1.2-0.4c-0.3-0.3-0.8-0.4-1.1-0.2c-0.4,0.2-0.9,0.2-1.3,0c-0.4-0.2-0.9-0.1-1.1,0.2c-0.3,0.3-0.8,0.5-1.2,0.4
		c-0.4-0.1-0.9,0.2-1,0.5c-0.2,0.4-0.6,0.7-1,0.7c-0.4,0-0.8,0.4-0.8,0.8c0,0.4-0.4,0.9-0.8,1c-0.4,0.2-0.6,0.6-0.5,1
		c0.1,0.4-0.1,0.9-0.4,1.2s-0.4,0.8-0.2,1.1c0.2,0.3,0.2,0.9,0,1.3c-0.2,0.4-0.1,0.9,0.2,1.1c0.3,0.3,0.5,0.8,0.4,1.2
		c-0.1,0.4,0.2,0.9,0.5,1c0.4,0.2,0.7,0.6,0.8,1c0,0.4,0.4,0.8,0.8,0.8s0.9,0.4,1,0.8c0.2,0.4,0.6,0.6,1,0.5
		c0.4-0.1,0.9,0.1,1.2,0.4c0.3,0.3,0.8,0.4,1.1,0.2c0.3-0.2,0.9-0.2,1.3,0c0.4,0.2,0.9,0.1,1.1-0.2c0.3-0.3,0.8-0.5,1.2-0.4
		C33.8,22,34.3,21.8,34.5,21.4z M30.4,19.7c-2.7,0-4.8-2.2-4.8-4.8c0-2.7,2.2-4.8,4.8-4.8s4.8,2.2,4.8,4.8
		C35.3,17.5,33.1,19.7,30.4,19.7z M24.7,22.5l-1.8,10l4.4-0.7l4,2.1l1.8-10c-0.8,0.2-1.7,0.4-2.7,0.4C28.3,24.4,26.3,23.7,24.7,22.5
		z M36.1,22.6c-0.4,0.3-0.9,0.6-1.4,0.8l-1.1,6l4.8-2.6L36.1,22.6z"/>
	<path class="st1" d="M71.2,10.8c-1.2,0.9-1.6,2.4-1.5,3.2c0.1,1,0.3,2.2,0.3,2.2s-0.4,0.2-0.4,1c0.1,2.1,0.8,1.2,1,2.1
		c0.3,2.2,1.1,1.8,1.1,3c0,2-0.8,3-3.4,4.1c-2.6,1.1-5.3,2.5-5.3,5v1.2h22v-1.2c0-2.4-2.7-3.9-5.3-5c-2.6-1.1-3.4-2.1-3.4-4.1
		c0-1.2,0.8-0.8,1.1-3c0.1-0.9,0.8,0,1-2.1c0-0.8-0.4-1-0.4-1s0.2-1.2,0.3-2.2c0.1-1-0.5-3.1-2.8-3.8c-0.4-0.4-0.7-1.1,0.6-1.7
		C73.3,8.3,72.7,9.7,71.2,10.8z"/>
	<g>
		<circle class="st2" cx="39.1" cy="10.4" r="3.8"/>
		<text transform="matrix(1 0 0 1 37.3013 12.5854)" class="st3 st4 st5">3</text>
	</g>
	<g>
		<circle class="st2" cx="80.5" cy="10.4" r="3.8"/>
		<text transform="matrix(1 0 0 1 78.4888 12.5854)" class="st3 st4 st5">2</text>
	</g>
	<g>
		<circle class="st2" cx="132.4" cy="10.4" r="3.8"/>
		<text transform="matrix(1 0 0 1 130.3638 12.5854)" class="st3 st4 st5">1</text>
	</g>
	<g>
		<circle class="st2" cx="170.3" cy="10.4" r="3.8"/>
		<text transform="matrix(1 0 0 1 168.2388 12.5854)" class="st3 st4 st5">5</text>
	</g>
</g>
</svg>
